<?xml version="1.0" encoding="UTF-8"?><svg xmlns="http://www.w3.org/2000/svg" width="311" height="311" viewBox="0 0 311 311" fill="none" version="1.2" baseProfile="tiny-ps"><title>cad-logo-bimi</title><rect width="310.993" height="310.993" rx="34.0148" fill="#0F0F0F"></rect><path d="M225.344 121.99C225.344 112.829 223.538 103.758 220.027 95.2952C216.517 86.8322 211.371 79.1427 204.885 72.6654C198.399 66.1881 190.699 61.0497 182.224 57.5441C173.749 54.0385 164.666 52.2344 155.493 52.2344C146.319 52.2344 137.236 54.0385 128.761 57.5441C120.286 61.0497 112.586 66.1881 106.1 72.6654C99.6136 79.1427 94.4682 86.8322 90.9577 95.2952C87.4472 103.758 85.6406 112.829 85.6406 121.99V256.931C85.6406 258.273 86.7284 259.36 88.0703 259.36H146.303C147.645 259.36 148.733 258.273 148.733 256.931V118.023C148.733 114.295 151.759 111.273 155.493 111.273C159.226 111.273 162.252 114.295 162.252 118.023V256.931C162.252 258.273 163.34 259.36 164.682 259.36H222.915C224.257 259.36 225.344 258.273 225.344 256.931V121.99Z" fill="#F2F2F2"></path></svg>